<!-- Generated by IcoMoon.io -->
<svg version="1.1" xmlns="http://www.w3.org/2000/svg" width="1095" height="1024" viewBox="0 0 1095 1024">
<title></title>
<g id="icomoon-ignore">
</g>
<path d="M463.109 0h-421.008c-23.252 0-42.102 17.633-42.102 39.386v393.848c0 21.751 18.849 39.385 42.102 39.385h421.008c23.255 0 42.104-17.634 42.104-39.385v-393.848c-0.004-21.752-18.852-39.386-42.104-39.386z"></path>
<path d="M1052.524 0h-421.009c-23.252 0-42.101 17.633-42.101 39.386v393.848c0 21.751 18.849 39.385 42.101 39.385h421.009c23.252 0 42.104-17.634 42.104-39.385v-393.848c-0.004-21.752-18.852-39.386-42.104-39.386z"></path>
<path d="M463.109 551.385h-421.008c-23.252 0-42.102 17.63-42.102 39.385v393.848c0 21.751 18.849 39.385 42.102 39.385h421.008c23.255 0 42.104-17.634 42.104-39.385v-393.848c-0.004-21.755-18.852-39.385-42.104-39.385z"></path>
<path d="M1052.524 748.307h-168.402v-157.537c0-21.755-18.852-39.385-42.104-39.385s-42.101 17.63-42.101 39.385v157.537h-168.402c-23.252 0-42.101 17.634-42.101 39.389 0 21.751 18.849 39.382 42.101 39.382h168.406v157.541c0 21.751 18.849 39.385 42.101 39.385s42.101-17.634 42.101-39.385v-157.541h168.406c23.252 0 42.101-17.634 42.101-39.385s-18.852-39.385-42.104-39.385z"></path>
</svg>
