<!-- Generated by IcoMoon.io -->
<svg version="1.1" xmlns="http://www.w3.org/2000/svg" width="1067" height="1024" viewBox="0 0 1067 1024">
<title></title>
<g id="icomoon-ignore">
</g>
<path d="M521.112 593.66l-364.735-191.609-102.573 122.706c129.388 68.382 258.777 136.765 388.252 205.234l79.056-136.331zM549.315 203.672l-366.037 181.543 356.838 187.531 357.532-187.878-205.060-107.26-143.273-73.936zM137.893 381.397l-134.508-127.393c-4.946-5.641-4.426-14.319 1.302-19.352 0.781-0.694 1.736-1.302 2.603-1.822l408.819-231.268c6.508-3.471 14.579-1.041 18.224 5.294l114.809 158.113 76.54-143.36c3.558-6.682 11.802-9.285 18.484-5.727l414.807 219.292c1.215 0.694 2.343 1.475 3.384 2.517 5.294 5.38 5.207 14.058-0.174 19.352l-122.88 120.711 118.975 142.405c4.86 5.814 4.079 14.492-1.736 19.265-0.868 0.694-1.822 1.302-2.777 1.822l-106.826 56.494v211.742c0 5.727-3.471 10.587-8.504 12.67l-386.256 196.035c-2.517 2.777-6.161 4.513-10.153 4.513-5.38 0-9.98-3.037-12.236-7.55l-386.951-193.519c-4.773-2.43-7.55-7.203-7.55-12.236v-210.614l-108.822-57.535c-0.955-0.521-1.909-1.128-2.777-1.822-5.814-4.86-6.595-13.538-1.736-19.265l115.938-138.761zM527.967 182.758l-110.471-150.91-382.178 217.209 124.876 116.285 367.772-182.584zM570.576 182.932l128 66.994 217.643 112.206 113.421-111.425-386.169-204.279-72.895 136.504zM923.943 402.050l-364.735 191.609 79.056 136.244 388.252-205.234-102.574-122.62z"></path>
</svg>
