<!-- Generated by IcoMoon.io -->
<svg version="1.1" xmlns="http://www.w3.org/2000/svg" width="1152" height="1024" viewBox="0 0 1152 1024">
<title></title>
<g id="icomoon-ignore">
</g>
<path d="M1126.989 1024h-1047.352c-13.812 0-25.011-13.338-25.011-29.792 0-16.448 11.199-29.786 25.011-29.786h1047.352c13.811 0 25.011 13.338 25.011 29.786 0 16.454-11.2 29.792-25.011 29.792z"></path>
<path d="M1126.989 543.652h-1047.352c-13.812 0-25.011-13.338-25.011-29.789s11.199-29.789 25.011-29.789h1047.352c13.811 0 25.011 13.338 25.011 29.789s-11.2 29.789-25.011 29.789z"></path>
<path d="M1126.989 59.578h-1047.352c-13.812 0-25.011-13.338-25.011-29.789s11.199-29.789 25.011-29.789h1047.352c13.811 0 25.011 13.338 25.011 29.789s-11.2 29.789-25.011 29.789z"></path>
</svg>
