<!-- Generated by IcoMoon.io -->
<svg version="1.1" xmlns="http://www.w3.org/2000/svg" width="1024" height="1024" viewBox="0 0 1024 1024">
<title></title>
<g id="icomoon-ignore">
</g>
<path d="M942.768 145.156c-53.009-57.492-125.747-89.156-204.823-89.156-59.108 0-113.243 18.688-160.899 55.539-24.047 18.602-45.836 41.359-65.047 67.922-19.203-26.555-41-49.32-65.055-67.922-47.648-36.851-101.781-55.539-160.89-55.539-79.078 0-151.821 31.664-204.828 89.156-52.375 56.821-81.227 134.446-81.227 218.586 0 86.601 32.273 165.875 101.563 249.486 61.984 74.786 151.070 150.71 254.234 238.626 35.227 30.020 75.156 64.051 116.617 100.301 10.953 9.597 25.008 14.876 39.586 14.876 14.57 0 28.633-5.279 39.57-14.859 41.462-36.255 81.415-70.303 116.658-100.346 103.145-87.893 192.233-163.812 254.219-238.609 69.285-83.599 101.552-162.873 101.552-249.482 0-84.133-28.854-161.758-81.232-218.578z"></path>
</svg>
