<!-- Generated by IcoMoon.io -->
<svg version="1.1" xmlns="http://www.w3.org/2000/svg" width="1152" height="1024" viewBox="0 0 1152 1024">
<title></title>
<g id="icomoon-ignore">
</g>
<path d="M0 245.336c0-17.673 14.327-32 32-32h870.406c17.67 0 32 14.327 32 32v746.664c0 17.677-14.33 32-32 32h-870.406c-17.673 0-32-14.323-32-32v-746.664zM64 277.336v682.664h806.406v-682.664h-806.406z"></path>
<path d="M557.592 322.43c12.786-11.178 32.076-10.42 43.946 1.725l323.761 331.256c5.843 5.984 9.114 14.010 9.114 22.368v308.742c0 17.67-14.33 32-32 32h-478.407c-8.614 0-16.865-3.475-22.885-9.632l-266.052-272.218c-6.148-6.291-9.436-14.835-9.091-23.622s4.292-17.050 10.914-22.835l420.701-367.784zM204.484 716.128l232.992 238.394h432.937v-263.699l-293.487-300.286-372.442 325.592z"></path>
<path d="M19.919 555.822c12.045-4.911 25.864-2.042 34.959 7.258l396.629 405.56c9.004 9.21 11.612 22.912 6.618 34.784s-16.618 19.59-29.496 19.59h-396.629c-17.673 0-32-14.323-32-32v-405.56c0-13.007 7.874-24.721 19.919-29.632zM64 663.942v295.072h288.575l-288.575-295.072z"></path>
<path d="M216.936 394.668c-18.98 0-33.28 14.921-33.28 32s14.3 32 33.28 32c18.98 0 33.281-14.922 33.281-32s-14.3-32-33.281-32zM119.656 426.668c0-53.614 44.154-96 97.28-96s97.281 42.386 97.281 96c0 53.613-44.154 96-97.281 96s-97.28-42.387-97.28-96z"></path>
<path d="M108.797 138.668c0-17.674 14.327-32 32-32h870.403c17.67 0 32 14.326 32 32v746.669c0 17.67-14.33 32-32 32h-108.8c-17.67 0-32-14.33-32-32v-608.003h-729.603c-17.673 0-32-14.326-32-32v-106.666zM172.797 170.668v42.666h729.603c17.67 0 32 14.327 32 32v608.003h44.8v-682.669h-806.403z"></path>
<path d="M217.578 32c0-17.673 14.327-32 32-32h870.403c17.67 0 32 14.327 32 32v746.669c0 17.67-14.33 32-32 32h-108.8c-17.67 0-32-14.33-32-32v-608.002h-729.603c-17.673 0-32-14.327-32-32v-106.667zM281.578 64v42.667h729.603c17.67 0 32 14.326 32 32v608.002h44.8v-682.669h-806.403z"></path>
</svg>
