<?xml version="1.0" encoding="iso-8859-1"?>
<!-- Generator: Adobe Illustrator 19.0.0, SVG Export Plug-In . SVG Version: 6.00 Build 0)  -->
<svg version="1.1" id="Capa_1" xmlns="http://www.w3.org/2000/svg" xmlns:xlink="http://www.w3.org/1999/xlink" x="0px" y="0px"
	 viewBox="0 0 480.008 480.008" style="enable-background:new 0 0 480.008 480.008;" xml:space="preserve">
<g>
	<g>
		<path d="M240.212,68.208c-80.999-0.111-147.855,63.315-152.008,144.208c-2.889,55.668,24.25,108.622,71.128,138.784
			c15.514,10.298,24.791,27.723,24.672,46.344V448c0,0.16,0.08,0.296,0.088,0.456c0.05,0.543,0.157,1.079,0.32,1.6
			c0.112,0.521,0.281,1.028,0.504,1.512c0.04,0.149,0.088,0.296,0.144,0.44l13.712,24c1.432,2.48,4.08,4.006,6.944,4h68.576
			c2.864,0.006,5.512-1.52,6.944-4l13.712-24c0.056-0.144,0.104-0.291,0.144-0.44c0.223-0.484,0.392-0.991,0.504-1.512
			c0.163-0.521,0.27-1.057,0.32-1.6c0-0.16,0.088-0.296,0.088-0.456v-50.472c-0.123-18.847,9.379-36.453,25.2-46.696
			c44.022-28.807,70.623-77.807,70.8-130.416C392.119,136.469,324.159,68.323,240.212,68.208z M269.652,464h-59.296l-4.568-8h68.432
			L269.652,464z M280.004,440h-80v-16h80V440z M280.004,397.528V408h-80v-10.456c0-1.872-0.2-3.704-0.336-5.544h80.68
			C280.204,393.84,280.004,395.664,280.004,397.528z M312.532,337.384c-13.956,9.042-24.276,22.716-29.144,38.616h-35.384V255.048
			l38.28-32.088c3.387-2.839,3.831-7.885,0.992-11.272s-7.885-3.831-11.272-0.992l-36,30.168l-36-30.168
			c-3.387-2.839-8.433-2.395-11.272,0.992c-2.839,3.387-2.395,8.433,0.992,11.272l38.28,32.08V376h-35.32
			c-4.707-15.789-14.901-29.377-28.744-38.312c-42.036-27.062-66.362-74.562-63.752-124.488
			c3.859-70.309,60.323-126.279,130.664-129.52c36.868-1.519,72.739,12.188,99.2,37.904c26.94,25.801,42.107,61.53,41.952,98.832
			C375.855,267.596,352.007,311.544,312.532,337.384z"/>
	</g>
</g>
<g>
	<g>
		<path d="M48.004,208h-32c-4.418,0-8,3.582-8,8s3.582,8,8,8h32c4.418,0,8-3.582,8-8S52.422,208,48.004,208z"/>
	</g>
</g>
<g>
	<g>
		<path d="M109.892,74.576L85.66,50.344c-3.178-3.07-8.242-2.982-11.312,0.196c-2.994,3.1-2.994,8.015,0,11.116L98.58,85.888
			c3.178,3.069,8.243,2.981,11.312-0.197C112.886,82.591,112.886,77.676,109.892,74.576z"/>
	</g>
</g>
<g>
	<g>
		<path d="M240.004,0c-4.418,0-8,3.582-8,8v32c0,4.418,3.582,8,8,8s8-3.582,8-8V8C248.004,3.582,244.422,0,240.004,0z"/>
	</g>
</g>
<g>
	<g>
		<path d="M405.464,50.344c-3.1-2.995-8.016-2.995-11.116,0l-24.232,24.232c-3.124,3.125-3.123,8.19,0.002,11.314
			c1.5,1.499,3.534,2.342,5.654,2.342c2.122,0,4.156-0.844,5.656-2.344l24.232-24.232C408.73,58.478,408.642,53.414,405.464,50.344z
			"/>
	</g>
</g>
<g>
	<g>
		<path d="M464.004,208h-32c-4.418,0-8,3.582-8,8s3.582,8,8,8h32c4.418,0,8-3.582,8-8S468.422,208,464.004,208z"/>
	</g>
</g>
<g>
	<g>
		<path d="M405.66,370.344l-24.232-24.232c-3.178-3.07-8.242-2.982-11.312,0.196c-2.995,3.1-2.995,8.016,0,11.116l24.232,24.232
			c3.178,3.07,8.242,2.982,11.312-0.196C408.655,378.36,408.655,373.444,405.66,370.344z"/>
	</g>
</g>
<g>
	<g>
		<path d="M109.696,346.112c-3.1-2.994-8.015-2.994-11.116,0l-24.232,24.232c-3.124,3.125-3.123,8.19,0.002,11.314
			c1.5,1.499,3.534,2.342,5.654,2.342c2.122,0,4.156-0.844,5.656-2.344l24.232-24.232
			C112.962,354.246,112.874,349.182,109.696,346.112z"/>
	</g>
</g>
<g>
</g>
<g>
</g>
<g>
</g>
<g>
</g>
<g>
</g>
<g>
</g>
<g>
</g>
<g>
</g>
<g>
</g>
<g>
</g>
<g>
</g>
<g>
</g>
<g>
</g>
<g>
</g>
<g>
</g>
</svg>
