<!-- Generated by IcoMoon.io -->
<svg version="1.1" xmlns="http://www.w3.org/2000/svg" width="1138" height="1024" viewBox="0 0 1138 1024">
<title></title>
<g id="icomoon-ignore">
</g>
<path d="M1123.875 951.266l-323.552-291.197c62.673-69.673 100.408-158.207 100.408-254.631 0-223.486-202.049-405.33-450.367-405.33s-450.364 181.842-450.364 405.328c0 223.486 202.049 405.33 450.367 405.33 107.139 0 205.509-33.962 282.924-90.367l323.552 291.197c9.244 8.319 21.38 12.502 33.518 12.502s24.272-4.182 33.517-12.502c18.531-16.682 18.531-43.647-0.002-60.33zM450.367 725.432c-196.076 0-355.552-143.528-355.552-319.997s159.476-319.997 355.552-319.997c196.076 0 355.552 143.529 355.552 319.997s-159.479 319.997-355.552 319.997z"></path>
</svg>
